# xmcd
#
# Track frame offsets:
#	150
#	12930
#	26430
#	40819
#	54532
#	67664
#	78569
#	92182
#	107029
#	120370
#	133075
#	146208
#	158642
#	174303
#	189444
#	204499
#	215242
#
# Disc length: 3066 seconds
# Revision: 1
# Processed by: cddbd v1.5.2PL0 Copyright (c) Steve Scherf et al.
# Submitted via: dBpowerAMP V12.0
#
DISCID=e70bf811
DTITLE=Various Artist - Those Dirty Blues
DYEAR=1937
DGENRE=Blues
TTITLE0=Barrel House Annie - If It Don't Fit (Don't Force It)
TTITLE1=Al Miller - It Must Be Good
TTITLE2=Coot Grant and Kid Wilson - Get Off With Me
TTITLE3=Alberta Hunter - You Can't Tell The Difference After Dark
TTITLE4=Frankie 'Half Pint' Jaxon and The Harlem Hamfats - Wet It (Let The Good Work Go On)
TTITLE5=Johnnie Temple and The Harlem Hamfats - Stavin' Chain
TTITLE6=Memphis Minnie - Down In The Alley
TTITLE7=Lucille Bogan - Shave 'em Dry (2nd Version)
TTITLE8=Jimmy Strange The Yas Yas Man - Yas, Yas, Yas No. 1
TTITLE9=Barrel House Annie - Must Get Mine In Front
TTITLE10=Rosetta Howard and The Harlem Hamfats - Candy Man
TTITLE11=Lovin' Sam Theard - She's Givin' It Away
TTITLE12=Bessie Smith - Mean Old Bed Bug Blues
TTITLE13=Clara Smith - It's Tight Like That
TTITLE14=Victoria Spivey - How Do They Do It That Way?
TTITLE15=Rosetta Howard - Men Are Like Street Cars
TTITLE16=Butterbeans and Susie - I Wanna Hot Dog For My Roll
EXTD=
EXTT0=
EXTT1=
EXTT2=
EXTT3=
EXTT4=
EXTT5=
EXTT6=
EXTT7=
EXTT8=
EXTT9=
EXTT10=
EXTT11=
EXTT12=
EXTT13=
EXTT14=
EXTT15=
EXTT16=
PLAYORDER=
